<?xml version="1.0" encoding="iso-8859-1"?>
<!-- Generator: Adobe Illustrator 19.0.0, SVG Export Plug-In . SVG Version: 6.00 Build 0)  -->
<svg version="1.1" id="Layer_1" xmlns="http://www.w3.org/2000/svg" xmlns:xlink="http://www.w3.org/1999/xlink" x="0px" y="0px"
	 viewBox="0 0 512 512" style="enable-background:new 0 0 512 512;" xml:space="preserve">
<g>
	<g>
		<path d="M416.036,224.219c0.282-3.724,0.426-7.487,0.426-11.283c0-81.713-66.241-147.953-147.954-147.953
			c-78.235,0-142.279,60.727-147.588,137.614C54.292,203.3,0,258.012,0,324.799c0,67.22,54.998,122.218,122.218,122.218h277.804
			C461.61,447.017,512,396.625,512,335.04v-0.001C512,278.886,470.109,232.05,416.036,224.219z M211.577,335.827l-24.684,24.684
			l-58.787-58.787l58.787-58.787l24.684,24.684l-34.102,34.103L211.577,335.827z M255.367,389.453h-35.674l36.938-175.457h35.674
			L255.367,389.453z M325.107,360.51l-24.684-24.684l34.102-34.103l-34.102-34.103l24.684-24.684l58.787,58.787L325.107,360.51z"/>
	</g>
</g>
<g>
</g>
<g>
</g>
<g>
</g>
<g>
</g>
<g>
</g>
<g>
</g>
<g>
</g>
<g>
</g>
<g>
</g>
<g>
</g>
<g>
</g>
<g>
</g>
<g>
</g>
<g>
</g>
<g>
</g>
</svg>
