<?xml version="1.0" encoding="iso-8859-1"?>
<!-- Generator: Adobe Illustrator 19.0.0, SVG Export Plug-In . SVG Version: 6.00 Build 0)  -->
<svg version="1.1" id="Layer_1" xmlns="http://www.w3.org/2000/svg" xmlns:xlink="http://www.w3.org/1999/xlink" x="0px" y="0px"
	 viewBox="0 0 507.176 507.176" style="enable-background:new 0 0 507.176 507.176;" xml:space="preserve">
<g>
	<g>
		<path d="M253.312,206.38c-65.464,0-118.72,53.26-118.72,118.716c0,65.464,53.26,118.716,118.72,118.716
			c65.456,0,118.712-53.252,118.716-118.716C372.028,259.636,318.768,206.38,253.312,206.38z M253.312,427.964
			c-56.728,0-102.868-46.144-102.868-102.868c0-56.716,46.14-102.86,102.868-102.86c56.716,0,102.864,46.14,102.868,102.86
			C356.18,381.82,310.032,427.964,253.312,427.964z"/>
	</g>
</g>
<g>
	<g>
		<path d="M414.052,162.42c-1.912,0-3.876,0.072-5.876,0.192c-14.88-33.912-48.028-55.664-85.252-55.664
			c-16.02,0-31.68,4.108-45.572,11.924c-14.784-33.388-48.432-55.508-85.184-55.508c-51.34,0-93.112,41.772-93.112,93.112
			c0,2.012,0.076,4.072,0.224,6.16c-2.096-0.144-4.156-0.216-6.164-0.216C41.772,162.42,0,204.192,0,255.532
			c0,50.008,40.5,91.628,90.408,93.072c0.236,0.036,0.48,0.076,0.728,0.076h53.916c-1.64-7.924-2.532-15.484-2.532-23.564
			c0-61.188,49.608-110.8,110.796-110.8c61.184,0,110.792,49.612,110.792,110.804c0,8.084-0.892,15.636-2.532,23.56h54.464
			c0.248,0,0.488-0.04,0.72-0.076c49.916-1.44,90.416-43.056,90.416-93.064C507.168,204.2,465.404,162.42,414.052,162.42z"/>
	</g>
</g>
<g>
	<g>
		<path d="M307.6,313.66l-3.968-0.304c-1.304-5.612-3.64-10.9-6.736-15.8l2.42-2.928c3.192-3.776,2.916-9.68-0.584-13.168
			l-2.408-2.388c-3.404-3.384-9.552-3.628-13.188-0.528l-2.96,2.52c-4.884-3.04-10.164-5.216-15.756-6.492l-0.324-4.016
			c-0.416-5.004-4.68-9.044-9.716-9.044h-3.392c-4.928,0-9.276,4.132-9.684,9.052l-0.316,3.972
			c-5.556,1.296-10.904,3.54-15.724,6.548l-2.988-2.504c-3.648-3.084-9.772-2.84-13.172,0.564l-2.368,2.392
			c-3.508,3.496-3.756,9.408-0.548,13.18l2.476,2.92c-3.048,4.856-5.288,10.232-6.6,15.804l-3.752,0.316
			c-4.928,0.408-8.92,4.772-8.916,9.7l-0.008,3.4c0,4.936,4.016,9.28,8.944,9.68l3.652,0.296c1.28,5.684,3.488,11.036,6.584,15.988
			l-2.328,2.74c-3.248,3.836-3.008,9.628,0.556,13.172l2.392,2.396c3.388,3.376,9.52,3.632,13.172,0.54l2.704-2.3
			c4.968,3.128,10.344,5.36,16.056,6.66l0.288,3.492c0.392,4.92,4.736,8.852,9.684,8.852l3.392-0.064h0.008
			c5.02,0,9.276-3.852,9.7-8.864l0.288-3.464c5.704-1.316,11.08-3.536,16.036-6.676l2.692,2.292
			c1.724,1.464,3.948,2.272,6.268,2.272c2.6,0,5.12-1.024,6.912-2.816l2.392-2.4c3.56-3.552,3.784-9.344,0.528-13.176l-2.332-2.74
			c3.084-4.948,5.28-10.312,6.556-15.996l4.072-0.296c4.936-0.396,9.38-4.752,9.38-9.704v-3.396
			C316.98,318.404,312.52,314.056,307.6,313.66z M274.36,343.092c-4.76,5.772-11.488,9.344-18.932,10.048
			c-0.908,0.088-1.812,0.132-2.708,0.132h-0.004c-14.484,0-26.444-10.892-27.82-25.328c-1.46-15.372,9.844-29.076,25.196-30.54
			c15.74-1.512,29.072,9.876,30.54,25.204C281.348,330.048,279.12,337.324,274.36,343.092z"/>
	</g>
</g>
<g>
</g>
<g>
</g>
<g>
</g>
<g>
</g>
<g>
</g>
<g>
</g>
<g>
</g>
<g>
</g>
<g>
</g>
<g>
</g>
<g>
</g>
<g>
</g>
<g>
</g>
<g>
</g>
<g>
</g>
</svg>
