<?xml version="1.0" encoding="iso-8859-1"?>
<!-- Generator: Adobe Illustrator 18.0.0, SVG Export Plug-In . SVG Version: 6.00 Build 0)  -->
<!DOCTYPE svg PUBLIC "-//W3C//DTD SVG 1.1//EN" "http://www.w3.org/Graphics/SVG/1.1/DTD/svg11.dtd">
<svg version="1.1" id="Capa_1" xmlns="http://www.w3.org/2000/svg" xmlns:xlink="http://www.w3.org/1999/xlink" x="0px" y="0px"
	 viewBox="0 0 498.834 498.834" style="enable-background:new 0 0 498.834 498.834;" xml:space="preserve">
<g>
	<path d="M384.213,196.152c-0.912,0-1.807,0.113-2.705,0.138C368.32,126.363,307.029,73.449,233.279,73.449
		c-83.387,0-150.975,67.578-150.975,150.954c0,12.714,1.748,24.998,4.717,36.791c-1.586-0.089-3.082-0.472-4.717-0.472
		C36.842,260.722,0,297.572,0,343.062c0,43.606,32.977,79.479,75.852,82.323h308.361c63.303,0,114.621-51.316,114.621-114.618
		C498.834,247.46,447.516,196.152,384.213,196.152z M166.832,153.431h132.01c9.229,0,16.693,7.476,16.693,16.693
		c0,9.221-7.465,16.693-16.693,16.693h-132.01c-9.227,0-16.693-7.473-16.693-16.693
		C150.139,160.907,157.605,153.431,166.832,153.431z M399.002,353.747H83.367c-9.229,0-16.693-7.473-16.693-16.69
		c0-9.221,7.465-16.693,16.693-16.693h315.635c9.227,0,16.691,7.473,16.691,16.693C415.693,346.274,408.228,353.747,399.002,353.747
		z M399.002,270.284h-232.17c-9.227,0-16.693-7.475-16.693-16.693s7.467-16.693,16.693-16.693h232.17
		c9.227,0,16.691,7.476,16.691,16.693S408.228,270.284,399.002,270.284z"/>
</g>
<g>
</g>
<g>
</g>
<g>
</g>
<g>
</g>
<g>
</g>
<g>
</g>
<g>
</g>
<g>
</g>
<g>
</g>
<g>
</g>
<g>
</g>
<g>
</g>
<g>
</g>
<g>
</g>
<g>
</g>
</svg>
